<?xml version="1.0" encoding="UTF-8" standalone="no"?>
<!DOCTYPE svg PUBLIC "-//W3C//DTD SVG 1.1//EN"
 "http://www.w3.org/Graphics/SVG/1.1/DTD/svg11.dtd">
<!-- Generated by graphviz version 2.43.0 (0)
 -->
<!-- Title: G Pages: 1 -->
<svg width="1692pt" height="882pt"
 viewBox="0.00 0.00 1692.20 881.85" xmlns="http://www.w3.org/2000/svg" xmlns:xlink="http://www.w3.org/1999/xlink">
<g id="graph0" class="graph" transform="scale(1 1) rotate(0) translate(21.6 860.25)">
<title>G</title>
<polygon fill="#111111" stroke="transparent" points="-21.6,21.6 -21.6,-860.25 1670.6,-860.25 1670.6,21.6 -21.6,21.6"/>
<!-- App.tsx -->
<g id="node1" class="node">
<title>App.tsx</title>
<path fill="none" stroke="#c6c5fe" d="M331.83,-204.65C331.83,-204.65 285.17,-204.65 285.17,-204.65 281.33,-204.65 277.5,-200.82 277.5,-196.98 277.5,-196.98 277.5,-189.32 277.5,-189.32 277.5,-185.48 281.33,-181.65 285.17,-181.65 285.17,-181.65 331.83,-181.65 331.83,-181.65 335.67,-181.65 339.5,-185.48 339.5,-189.32 339.5,-189.32 339.5,-196.98 339.5,-196.98 339.5,-200.82 335.67,-204.65 331.83,-204.65"/>
<text text-anchor="middle" x="308.5" y="-189.45" font-family="Arial" font-size="14.00" fill="#c6c5fe">App.tsx</text>
</g>
<!-- components/Chess.tsx -->
<g id="node2" class="node">
<title>components/Chess.tsx</title>
<path fill="none" stroke="#c6c5fe" d="M527.33,-418.65C527.33,-418.65 388.67,-418.65 388.67,-418.65 384.83,-418.65 381,-414.82 381,-410.98 381,-410.98 381,-403.32 381,-403.32 381,-399.48 384.83,-395.65 388.67,-395.65 388.67,-395.65 527.33,-395.65 527.33,-395.65 531.17,-395.65 535,-399.48 535,-403.32 535,-403.32 535,-410.98 535,-410.98 535,-414.82 531.17,-418.65 527.33,-418.65"/>
<text text-anchor="middle" x="458" y="-403.45" font-family="Arial" font-size="14.00" fill="#c6c5fe">components/Chess.tsx</text>
</g>
<!-- App.tsx&#45;&gt;components/Chess.tsx -->
<g id="edge1" class="edge">
<title>App.tsx&#45;&gt;components/Chess.tsx</title>
<path fill="none" stroke="#757575" d="M317.43,-204.65C341.34,-239.34 412.94,-343.22 443.23,-387.16"/>
<polygon fill="#757575" stroke="#757575" points="440.47,-389.34 449.03,-395.59 446.24,-385.37 440.47,-389.34"/>
</g>
<!-- components/Lobby.tsx -->
<g id="node3" class="node">
<title>components/Lobby.tsx</title>
<path fill="none" stroke="#c6c5fe" d="M526.33,-104.65C526.33,-104.65 389.67,-104.65 389.67,-104.65 385.83,-104.65 382,-100.82 382,-96.98 382,-96.98 382,-89.32 382,-89.32 382,-85.48 385.83,-81.65 389.67,-81.65 389.67,-81.65 526.33,-81.65 526.33,-81.65 530.17,-81.65 534,-85.48 534,-89.32 534,-89.32 534,-96.98 534,-96.98 534,-100.82 530.17,-104.65 526.33,-104.65"/>
<text text-anchor="middle" x="458" y="-89.45" font-family="Arial" font-size="14.00" fill="#c6c5fe">components/Lobby.tsx</text>
</g>
<!-- App.tsx&#45;&gt;components/Lobby.tsx -->
<g id="edge2" class="edge">
<title>App.tsx&#45;&gt;components/Lobby.tsx</title>
<path fill="none" stroke="#757575" d="M330.61,-181.63C335.47,-178.72 340.51,-175.48 345,-172.15 362.43,-159.22 363.63,-152.16 381,-139.15 395.28,-128.45 412.17,-118.03 426.39,-109.82"/>
<polygon fill="#757575" stroke="#757575" points="428.33,-112.74 435.3,-104.76 424.88,-106.65 428.33,-112.74"/>
</g>
<!-- context/SocketContext.tsx -->
<g id="node4" class="node">
<title>context/SocketContext.tsx</title>
<path fill="none" stroke="#cfffac" d="M1394.33,-183.65C1394.33,-183.65 1236.67,-183.65 1236.67,-183.65 1232.83,-183.65 1229,-179.82 1229,-175.98 1229,-175.98 1229,-168.32 1229,-168.32 1229,-164.48 1232.83,-160.65 1236.67,-160.65 1236.67,-160.65 1394.33,-160.65 1394.33,-160.65 1398.17,-160.65 1402,-164.48 1402,-168.32 1402,-168.32 1402,-175.98 1402,-175.98 1402,-179.82 1398.17,-183.65 1394.33,-183.65"/>
<text text-anchor="middle" x="1315.5" y="-168.45" font-family="Arial" font-size="14.00" fill="#cfffac">context/SocketContext.tsx</text>
</g>
<!-- App.tsx&#45;&gt;context/SocketContext.tsx -->
<g id="edge3" class="edge">
<title>App.tsx&#45;&gt;context/SocketContext.tsx</title>
<path fill="none" stroke="#757575" d="M339.65,-189.94C388.27,-184.94 487.04,-175.51 571,-172.15 803.31,-162.84 1076.78,-166.63 1218.48,-169.69"/>
<polygon fill="#757575" stroke="#757575" points="1218.8,-173.2 1228.87,-169.92 1218.95,-166.2 1218.8,-173.2"/>
</g>
<!-- gameLogic/resetGameState.ts -->
<g id="node5" class="node">
<title>gameLogic/resetGameState.ts</title>
<path fill="none" stroke="#cfffac" d="M1103.83,-242.65C1103.83,-242.65 918.17,-242.65 918.17,-242.65 914.33,-242.65 910.5,-238.82 910.5,-234.98 910.5,-234.98 910.5,-227.32 910.5,-227.32 910.5,-223.48 914.33,-219.65 918.17,-219.65 918.17,-219.65 1103.83,-219.65 1103.83,-219.65 1107.67,-219.65 1111.5,-223.48 1111.5,-227.32 1111.5,-227.32 1111.5,-234.98 1111.5,-234.98 1111.5,-238.82 1107.67,-242.65 1103.83,-242.65"/>
<text text-anchor="middle" x="1011" y="-227.45" font-family="Arial" font-size="14.00" fill="#cfffac">gameLogic/resetGameState.ts</text>
</g>
<!-- App.tsx&#45;&gt;gameLogic/resetGameState.ts -->
<g id="edge4" class="edge">
<title>App.tsx&#45;&gt;gameLogic/resetGameState.ts</title>
<path fill="none" stroke="#757575" d="M339.68,-195.8C388.33,-200.01 487.14,-208.22 571,-213.15 683,-219.73 811.21,-224.69 900.04,-227.72"/>
<polygon fill="#757575" stroke="#757575" points="900.02,-231.22 910.13,-228.06 900.26,-224.22 900.02,-231.22"/>
</g>
<!-- components/Chess.tsx&#45;&gt;context/SocketContext.tsx -->
<g id="edge26" class="edge">
<title>components/Chess.tsx&#45;&gt;context/SocketContext.tsx</title>
<path fill="none" stroke="#757575" d="M517.02,-395.61C534.35,-392.34 553.41,-388.92 571,-386.15 697.14,-366.26 1023.62,-363.45 1141,-313.15 1207.48,-284.66 1269.11,-222.93 1297.72,-191.45"/>
<polygon fill="#757575" stroke="#757575" points="1300.52,-193.57 1304.58,-183.79 1295.31,-188.91 1300.52,-193.57"/>
</g>
<!-- components/Board.tsx -->
<g id="node20" class="node">
<title>components/Board.tsx</title>
<path fill="none" stroke="#c6c5fe" d="M776.33,-418.65C776.33,-418.65 639.67,-418.65 639.67,-418.65 635.83,-418.65 632,-414.82 632,-410.98 632,-410.98 632,-403.32 632,-403.32 632,-399.48 635.83,-395.65 639.67,-395.65 639.67,-395.65 776.33,-395.65 776.33,-395.65 780.17,-395.65 784,-399.48 784,-403.32 784,-403.32 784,-410.98 784,-410.98 784,-414.82 780.17,-418.65 776.33,-418.65"/>
<text text-anchor="middle" x="708" y="-403.45" font-family="Arial" font-size="14.00" fill="#c6c5fe">components/Board.tsx</text>
</g>
<!-- components/Chess.tsx&#45;&gt;components/Board.tsx -->
<g id="edge23" class="edge">
<title>components/Chess.tsx&#45;&gt;components/Board.tsx</title>
<path fill="none" stroke="#757575" d="M535.09,-407.15C562.48,-407.15 593.56,-407.15 621.69,-407.15"/>
<polygon fill="#757575" stroke="#757575" points="621.9,-410.65 631.9,-407.15 621.9,-403.65 621.9,-410.65"/>
</g>
<!-- components/BoardButtons.tsx -->
<g id="node23" class="node">
<title>components/BoardButtons.tsx</title>
<path fill="none" stroke="#c6c5fe" d="M798.83,-204.65C798.83,-204.65 617.17,-204.65 617.17,-204.65 613.33,-204.65 609.5,-200.82 609.5,-196.98 609.5,-196.98 609.5,-189.32 609.5,-189.32 609.5,-185.48 613.33,-181.65 617.17,-181.65 617.17,-181.65 798.83,-181.65 798.83,-181.65 802.67,-181.65 806.5,-185.48 806.5,-189.32 806.5,-189.32 806.5,-196.98 806.5,-196.98 806.5,-200.82 802.67,-204.65 798.83,-204.65"/>
<text text-anchor="middle" x="708" y="-189.45" font-family="Arial" font-size="14.00" fill="#c6c5fe">components/BoardButtons.tsx</text>
</g>
<!-- components/Chess.tsx&#45;&gt;components/BoardButtons.tsx -->
<g id="edge24" class="edge">
<title>components/Chess.tsx&#45;&gt;components/BoardButtons.tsx</title>
<path fill="none" stroke="#757575" d="M466.2,-395.55C482.4,-370.14 524.01,-308.67 571,-269.15 601.31,-243.65 641.45,-222.46 670.25,-208.98"/>
<polygon fill="#757575" stroke="#757575" points="671.92,-212.07 679.55,-204.72 669.01,-205.7 671.92,-212.07"/>
</g>
<!-- components/GameOver.tsx -->
<g id="node26" class="node">
<title>components/GameOver.tsx</title>
<path fill="none" stroke="#c6c5fe" d="M791.83,-301.65C791.83,-301.65 624.17,-301.65 624.17,-301.65 620.33,-301.65 616.5,-297.82 616.5,-293.98 616.5,-293.98 616.5,-286.32 616.5,-286.32 616.5,-282.48 620.33,-278.65 624.17,-278.65 624.17,-278.65 791.83,-278.65 791.83,-278.65 795.67,-278.65 799.5,-282.48 799.5,-286.32 799.5,-286.32 799.5,-293.98 799.5,-293.98 799.5,-297.82 795.67,-301.65 791.83,-301.65"/>
<text text-anchor="middle" x="708" y="-286.45" font-family="Arial" font-size="14.00" fill="#c6c5fe">components/GameOver.tsx</text>
</g>
<!-- components/Chess.tsx&#45;&gt;components/GameOver.tsx -->
<g id="edge25" class="edge">
<title>components/Chess.tsx&#45;&gt;components/GameOver.tsx</title>
<path fill="none" stroke="#757575" d="M473.78,-395.43C494.48,-379.48 533.77,-350.91 571,-333.15 595.96,-321.24 625.02,-311.54 649.86,-304.39"/>
<polygon fill="#757575" stroke="#757575" points="650.83,-307.75 659.51,-301.67 648.94,-301.01 650.83,-307.75"/>
</g>
<!-- gameLogic/calculateThreateningSquares.ts -->
<g id="node27" class="node">
<title>gameLogic/calculateThreateningSquares.ts</title>
<path fill="none" stroke="#cfffac" d="M1446.33,-599.65C1446.33,-599.65 1184.67,-599.65 1184.67,-599.65 1180.83,-599.65 1177,-595.82 1177,-591.98 1177,-591.98 1177,-584.32 1177,-584.32 1177,-580.48 1180.83,-576.65 1184.67,-576.65 1184.67,-576.65 1446.33,-576.65 1446.33,-576.65 1450.17,-576.65 1454,-580.48 1454,-584.32 1454,-584.32 1454,-591.98 1454,-591.98 1454,-595.82 1450.17,-599.65 1446.33,-599.65"/>
<text text-anchor="middle" x="1315.5" y="-584.45" font-family="Arial" font-size="14.00" fill="#cfffac">gameLogic/calculateThreateningSquares.ts</text>
</g>
<!-- components/Chess.tsx&#45;&gt;gameLogic/calculateThreateningSquares.ts -->
<g id="edge27" class="edge">
<title>components/Chess.tsx&#45;&gt;gameLogic/calculateThreateningSquares.ts</title>
<path fill="none" stroke="#757575" d="M465.56,-418.86C480.49,-444.25 519.74,-504.17 571,-530.15 789.37,-640.83 1090.78,-619.65 1233.42,-601.02"/>
<polygon fill="#757575" stroke="#757575" points="1233.97,-604.48 1243.42,-599.68 1233.04,-597.54 1233.97,-604.48"/>
</g>
<!-- gameLogic/isCheck.ts -->
<g id="node28" class="node">
<title>gameLogic/isCheck.ts</title>
<path fill="none" stroke="#c6c5fe" d="M774.83,-677.65C774.83,-677.65 641.17,-677.65 641.17,-677.65 637.33,-677.65 633.5,-673.82 633.5,-669.98 633.5,-669.98 633.5,-662.32 633.5,-662.32 633.5,-658.48 637.33,-654.65 641.17,-654.65 641.17,-654.65 774.83,-654.65 774.83,-654.65 778.67,-654.65 782.5,-658.48 782.5,-662.32 782.5,-662.32 782.5,-669.98 782.5,-669.98 782.5,-673.82 778.67,-677.65 774.83,-677.65"/>
<text text-anchor="middle" x="708" y="-662.45" font-family="Arial" font-size="14.00" fill="#c6c5fe">gameLogic/isCheck.ts</text>
</g>
<!-- components/Chess.tsx&#45;&gt;gameLogic/isCheck.ts -->
<g id="edge28" class="edge">
<title>components/Chess.tsx&#45;&gt;gameLogic/isCheck.ts</title>
<path fill="none" stroke="#757575" d="M460.86,-418.9C467.63,-457.53 494.7,-581.44 571,-640.15 586.02,-651.7 604.68,-658.61 623.33,-662.63"/>
<polygon fill="#757575" stroke="#757575" points="622.88,-666.11 633.35,-664.53 624.18,-659.23 622.88,-666.11"/>
</g>
<!-- gameLogic/isDraw.ts -->
<g id="node29" class="node">
<title>gameLogic/isDraw.ts</title>
<path fill="none" stroke="#c6c5fe" d="M771.33,-756.65C771.33,-756.65 644.67,-756.65 644.67,-756.65 640.83,-756.65 637,-752.82 637,-748.98 637,-748.98 637,-741.32 637,-741.32 637,-737.48 640.83,-733.65 644.67,-733.65 644.67,-733.65 771.33,-733.65 771.33,-733.65 775.17,-733.65 779,-737.48 779,-741.32 779,-741.32 779,-748.98 779,-748.98 779,-752.82 775.17,-756.65 771.33,-756.65"/>
<text text-anchor="middle" x="708" y="-741.45" font-family="Arial" font-size="14.00" fill="#c6c5fe">gameLogic/isDraw.ts</text>
</g>
<!-- components/Chess.tsx&#45;&gt;gameLogic/isDraw.ts -->
<g id="edge29" class="edge">
<title>components/Chess.tsx&#45;&gt;gameLogic/isDraw.ts</title>
<path fill="none" stroke="#757575" d="M460.44,-418.72C466.21,-460.54 491.39,-605.72 571,-687.15 591.21,-707.82 619.95,-721.53 645.82,-730.4"/>
<polygon fill="#757575" stroke="#757575" points="644.97,-733.8 655.56,-733.57 647.13,-727.15 644.97,-733.8"/>
</g>
<!-- gameLogic/validMoves.ts -->
<g id="node30" class="node">
<title>gameLogic/validMoves.ts</title>
<path fill="none" stroke="#c6c5fe" d="M785.33,-521.65C785.33,-521.65 630.67,-521.65 630.67,-521.65 626.83,-521.65 623,-517.82 623,-513.98 623,-513.98 623,-506.32 623,-506.32 623,-502.48 626.83,-498.65 630.67,-498.65 630.67,-498.65 785.33,-498.65 785.33,-498.65 789.17,-498.65 793,-502.48 793,-506.32 793,-506.32 793,-513.98 793,-513.98 793,-517.82 789.17,-521.65 785.33,-521.65"/>
<text text-anchor="middle" x="708" y="-506.45" font-family="Arial" font-size="14.00" fill="#c6c5fe">gameLogic/validMoves.ts</text>
</g>
<!-- components/Chess.tsx&#45;&gt;gameLogic/validMoves.ts -->
<g id="edge30" class="edge">
<title>components/Chess.tsx&#45;&gt;gameLogic/validMoves.ts</title>
<path fill="none" stroke="#757575" d="M486.97,-418.76C531.74,-437.36 619.55,-473.83 669.64,-494.63"/>
<polygon fill="#757575" stroke="#757575" points="668.56,-497.97 679.14,-498.58 671.24,-491.51 668.56,-497.97"/>
</g>
<!-- components/LobbyGameButtons.tsx -->
<g id="node32" class="node">
<title>components/LobbyGameButtons.tsx</title>
<path fill="none" stroke="#c6c5fe" d="M818.33,-104.65C818.33,-104.65 597.67,-104.65 597.67,-104.65 593.83,-104.65 590,-100.82 590,-96.98 590,-96.98 590,-89.32 590,-89.32 590,-85.48 593.83,-81.65 597.67,-81.65 597.67,-81.65 818.33,-81.65 818.33,-81.65 822.17,-81.65 826,-85.48 826,-89.32 826,-89.32 826,-96.98 826,-96.98 826,-100.82 822.17,-104.65 818.33,-104.65"/>
<text text-anchor="middle" x="708" y="-89.45" font-family="Arial" font-size="14.00" fill="#c6c5fe">components/LobbyGameButtons.tsx</text>
</g>
<!-- components/Lobby.tsx&#45;&gt;components/LobbyGameButtons.tsx -->
<g id="edge35" class="edge">
<title>components/Lobby.tsx&#45;&gt;components/LobbyGameButtons.tsx</title>
<path fill="none" stroke="#757575" d="M534.08,-93.15C548.47,-93.15 563.9,-93.15 579.4,-93.15"/>
<polygon fill="#757575" stroke="#757575" points="579.59,-96.65 589.59,-93.15 579.59,-89.65 579.59,-96.65"/>
</g>
<!-- components/LobbySignInSignUpButton.tsx -->
<g id="node33" class="node">
<title>components/LobbySignInSignUpButton.tsx</title>
<path fill="none" stroke="#c6c5fe" d="M837.33,-23.65C837.33,-23.65 578.67,-23.65 578.67,-23.65 574.83,-23.65 571,-19.82 571,-15.98 571,-15.98 571,-8.32 571,-8.32 571,-4.48 574.83,-0.65 578.67,-0.65 578.67,-0.65 837.33,-0.65 837.33,-0.65 841.17,-0.65 845,-4.48 845,-8.32 845,-8.32 845,-15.98 845,-15.98 845,-19.82 841.17,-23.65 837.33,-23.65"/>
<text text-anchor="middle" x="708" y="-8.45" font-family="Arial" font-size="14.00" fill="#c6c5fe">components/LobbySignInSignUpButton.tsx</text>
</g>
<!-- components/Lobby.tsx&#45;&gt;components/LobbySignInSignUpButton.tsx -->
<g id="edge36" class="edge">
<title>components/Lobby.tsx&#45;&gt;components/LobbySignInSignUpButton.tsx</title>
<path fill="none" stroke="#757575" d="M494.27,-81.63C538.31,-67.25 613.7,-42.62 661.9,-26.88"/>
<polygon fill="#757575" stroke="#757575" points="663.03,-30.19 671.45,-23.76 660.86,-23.54 663.03,-30.19"/>
</g>
<!-- apis/ChessGame.ts -->
<g id="node6" class="node">
<title>apis/ChessGame.ts</title>
<path fill="none" stroke="#cfffac" d="M1375.83,-63.65C1375.83,-63.65 1255.17,-63.65 1255.17,-63.65 1251.33,-63.65 1247.5,-59.82 1247.5,-55.98 1247.5,-55.98 1247.5,-48.32 1247.5,-48.32 1247.5,-44.48 1251.33,-40.65 1255.17,-40.65 1255.17,-40.65 1375.83,-40.65 1375.83,-40.65 1379.67,-40.65 1383.5,-44.48 1383.5,-48.32 1383.5,-48.32 1383.5,-55.98 1383.5,-55.98 1383.5,-59.82 1379.67,-63.65 1375.83,-63.65"/>
<text text-anchor="middle" x="1315.5" y="-48.45" font-family="Arial" font-size="14.00" fill="#cfffac">apis/ChessGame.ts</text>
</g>
<!-- assets/bishopBlack.svg -->
<g id="node7" class="node">
<title>assets/bishopBlack.svg</title>
<path fill="none" stroke="#cfffac" d="M1640.33,-624.65C1640.33,-624.65 1498.67,-624.65 1498.67,-624.65 1494.83,-624.65 1491,-620.82 1491,-616.98 1491,-616.98 1491,-609.32 1491,-609.32 1491,-605.48 1494.83,-601.65 1498.67,-601.65 1498.67,-601.65 1640.33,-601.65 1640.33,-601.65 1644.17,-601.65 1648,-605.48 1648,-609.32 1648,-609.32 1648,-616.98 1648,-616.98 1648,-620.82 1644.17,-624.65 1640.33,-624.65"/>
<text text-anchor="middle" x="1569.5" y="-609.45" font-family="Arial" font-size="14.00" fill="#cfffac">assets/bishopBlack.svg</text>
</g>
<!-- assets/bishopWhite.svg -->
<g id="node8" class="node">
<title>assets/bishopWhite.svg</title>
<path fill="none" stroke="#cfffac" d="M1641.33,-583.65C1641.33,-583.65 1497.67,-583.65 1497.67,-583.65 1493.83,-583.65 1490,-579.82 1490,-575.98 1490,-575.98 1490,-568.32 1490,-568.32 1490,-564.48 1493.83,-560.65 1497.67,-560.65 1497.67,-560.65 1641.33,-560.65 1641.33,-560.65 1645.17,-560.65 1649,-564.48 1649,-568.32 1649,-568.32 1649,-575.98 1649,-575.98 1649,-579.82 1645.17,-583.65 1641.33,-583.65"/>
<text text-anchor="middle" x="1569.5" y="-568.45" font-family="Arial" font-size="14.00" fill="#cfffac">assets/bishopWhite.svg</text>
</g>
<!-- assets/icons.ts -->
<g id="node9" class="node">
<title>assets/icons.ts</title>
<path fill="none" stroke="#c6c5fe" d="M1360.33,-398.65C1360.33,-398.65 1270.67,-398.65 1270.67,-398.65 1266.83,-398.65 1263,-394.82 1263,-390.98 1263,-390.98 1263,-383.32 1263,-383.32 1263,-379.48 1266.83,-375.65 1270.67,-375.65 1270.67,-375.65 1360.33,-375.65 1360.33,-375.65 1364.17,-375.65 1368,-379.48 1368,-383.32 1368,-383.32 1368,-390.98 1368,-390.98 1368,-394.82 1364.17,-398.65 1360.33,-398.65"/>
<text text-anchor="middle" x="1315.5" y="-383.45" font-family="Arial" font-size="14.00" fill="#c6c5fe">assets/icons.ts</text>
</g>
<!-- assets/icons.ts&#45;&gt;assets/bishopBlack.svg -->
<g id="edge5" class="edge">
<title>assets/icons.ts&#45;&gt;assets/bishopBlack.svg</title>
<path fill="none" stroke="#757575" d="M1322.85,-398.79C1342.62,-433.87 1406.71,-539.36 1490,-592.15 1493.17,-594.15 1496.52,-595.97 1499.99,-597.61"/>
<polygon fill="#757575" stroke="#757575" points="1498.81,-600.92 1509.39,-601.57 1501.53,-594.47 1498.81,-600.92"/>
</g>
<!-- assets/icons.ts&#45;&gt;assets/bishopWhite.svg -->
<g id="edge6" class="edge">
<title>assets/icons.ts&#45;&gt;assets/bishopWhite.svg</title>
<path fill="none" stroke="#757575" d="M1325.24,-398.71C1348.54,-428.69 1415.45,-509.52 1490,-551.15 1493.92,-553.34 1498.07,-555.3 1502.34,-557.07"/>
<polygon fill="#757575" stroke="#757575" points="1501.25,-560.4 1511.84,-560.64 1503.71,-553.85 1501.25,-560.4"/>
</g>
<!-- assets/kingBlack.svg -->
<g id="node10" class="node">
<title>assets/kingBlack.svg</title>
<path fill="none" stroke="#cfffac" d="M1632.83,-542.65C1632.83,-542.65 1506.17,-542.65 1506.17,-542.65 1502.33,-542.65 1498.5,-538.82 1498.5,-534.98 1498.5,-534.98 1498.5,-527.32 1498.5,-527.32 1498.5,-523.48 1502.33,-519.65 1506.17,-519.65 1506.17,-519.65 1632.83,-519.65 1632.83,-519.65 1636.67,-519.65 1640.5,-523.48 1640.5,-527.32 1640.5,-527.32 1640.5,-534.98 1640.5,-534.98 1640.5,-538.82 1636.67,-542.65 1632.83,-542.65"/>
<text text-anchor="middle" x="1569.5" y="-527.45" font-family="Arial" font-size="14.00" fill="#cfffac">assets/kingBlack.svg</text>
</g>
<!-- assets/icons.ts&#45;&gt;assets/kingBlack.svg -->
<g id="edge7" class="edge">
<title>assets/icons.ts&#45;&gt;assets/kingBlack.svg</title>
<path fill="none" stroke="#757575" d="M1329.41,-398.81C1356.91,-423.06 1424.16,-479.23 1490,-510.15 1494.87,-512.43 1500.03,-514.51 1505.28,-516.38"/>
<polygon fill="#757575" stroke="#757575" points="1504.21,-519.71 1514.81,-519.52 1506.41,-513.06 1504.21,-519.71"/>
</g>
<!-- assets/kingWhite.svg -->
<g id="node11" class="node">
<title>assets/kingWhite.svg</title>
<path fill="none" stroke="#cfffac" d="M1633.83,-501.65C1633.83,-501.65 1505.17,-501.65 1505.17,-501.65 1501.33,-501.65 1497.5,-497.82 1497.5,-493.98 1497.5,-493.98 1497.5,-486.32 1497.5,-486.32 1497.5,-482.48 1501.33,-478.65 1505.17,-478.65 1505.17,-478.65 1633.83,-478.65 1633.83,-478.65 1637.67,-478.65 1641.5,-482.48 1641.5,-486.32 1641.5,-486.32 1641.5,-493.98 1641.5,-493.98 1641.5,-497.82 1637.67,-501.65 1633.83,-501.65"/>
<text text-anchor="middle" x="1569.5" y="-486.45" font-family="Arial" font-size="14.00" fill="#cfffac">assets/kingWhite.svg</text>
</g>
<!-- assets/icons.ts&#45;&gt;assets/kingWhite.svg -->
<g id="edge8" class="edge">
<title>assets/icons.ts&#45;&gt;assets/kingWhite.svg</title>
<path fill="none" stroke="#757575" d="M1337.6,-398.65C1369.75,-415.81 1433.23,-448.33 1490,-469.15 1496.41,-471.5 1503.2,-473.71 1509.99,-475.75"/>
<polygon fill="#757575" stroke="#757575" points="1509.34,-479.2 1519.92,-478.62 1511.28,-472.48 1509.34,-479.2"/>
</g>
<!-- assets/knightBlack.svg -->
<g id="node12" class="node">
<title>assets/knightBlack.svg</title>
<path fill="none" stroke="#cfffac" d="M1638.33,-460.65C1638.33,-460.65 1500.67,-460.65 1500.67,-460.65 1496.83,-460.65 1493,-456.82 1493,-452.98 1493,-452.98 1493,-445.32 1493,-445.32 1493,-441.48 1496.83,-437.65 1500.67,-437.65 1500.67,-437.65 1638.33,-437.65 1638.33,-437.65 1642.17,-437.65 1646,-441.48 1646,-445.32 1646,-445.32 1646,-452.98 1646,-452.98 1646,-456.82 1642.17,-460.65 1638.33,-460.65"/>
<text text-anchor="middle" x="1569.5" y="-445.45" font-family="Arial" font-size="14.00" fill="#cfffac">assets/knightBlack.svg</text>
</g>
<!-- assets/icons.ts&#45;&gt;assets/knightBlack.svg -->
<g id="edge9" class="edge">
<title>assets/icons.ts&#45;&gt;assets/knightBlack.svg</title>
<path fill="none" stroke="#757575" d="M1363.31,-398.66C1405.26,-408.99 1466.9,-424.15 1511.66,-435.16"/>
<polygon fill="#757575" stroke="#757575" points="1510.97,-438.6 1521.52,-437.59 1512.64,-431.8 1510.97,-438.6"/>
</g>
<!-- assets/knightWhite.svg -->
<g id="node13" class="node">
<title>assets/knightWhite.svg</title>
<path fill="none" stroke="#cfffac" d="M1639.33,-419.65C1639.33,-419.65 1499.67,-419.65 1499.67,-419.65 1495.83,-419.65 1492,-415.82 1492,-411.98 1492,-411.98 1492,-404.32 1492,-404.32 1492,-400.48 1495.83,-396.65 1499.67,-396.65 1499.67,-396.65 1639.33,-396.65 1639.33,-396.65 1643.17,-396.65 1647,-400.48 1647,-404.32 1647,-404.32 1647,-411.98 1647,-411.98 1647,-415.82 1643.17,-419.65 1639.33,-419.65"/>
<text text-anchor="middle" x="1569.5" y="-404.45" font-family="Arial" font-size="14.00" fill="#cfffac">assets/knightWhite.svg</text>
</g>
<!-- assets/icons.ts&#45;&gt;assets/knightWhite.svg -->
<g id="edge10" class="edge">
<title>assets/icons.ts&#45;&gt;assets/knightWhite.svg</title>
<path fill="none" stroke="#757575" d="M1368.1,-391.45C1400.75,-394.17 1443.79,-397.76 1481.6,-400.91"/>
<polygon fill="#757575" stroke="#757575" points="1481.35,-404.4 1491.6,-401.74 1481.93,-397.42 1481.35,-404.4"/>
</g>
<!-- assets/pawnBlack.svg -->
<g id="node14" class="node">
<title>assets/pawnBlack.svg</title>
<path fill="none" stroke="#cfffac" d="M1636.33,-378.65C1636.33,-378.65 1502.67,-378.65 1502.67,-378.65 1498.83,-378.65 1495,-374.82 1495,-370.98 1495,-370.98 1495,-363.32 1495,-363.32 1495,-359.48 1498.83,-355.65 1502.67,-355.65 1502.67,-355.65 1636.33,-355.65 1636.33,-355.65 1640.17,-355.65 1644,-359.48 1644,-363.32 1644,-363.32 1644,-370.98 1644,-370.98 1644,-374.82 1640.17,-378.65 1636.33,-378.65"/>
<text text-anchor="middle" x="1569.5" y="-363.45" font-family="Arial" font-size="14.00" fill="#cfffac">assets/pawnBlack.svg</text>
</g>
<!-- assets/icons.ts&#45;&gt;assets/pawnBlack.svg -->
<g id="edge11" class="edge">
<title>assets/icons.ts&#45;&gt;assets/pawnBlack.svg</title>
<path fill="none" stroke="#757575" d="M1368.1,-383.05C1401.68,-380.39 1446.23,-376.85 1484.8,-373.79"/>
<polygon fill="#757575" stroke="#757575" points="1485.3,-377.26 1494.99,-372.98 1484.74,-370.28 1485.3,-377.26"/>
</g>
<!-- assets/pawnWhite.svg -->
<g id="node15" class="node">
<title>assets/pawnWhite.svg</title>
<path fill="none" stroke="#cfffac" d="M1637.83,-337.65C1637.83,-337.65 1501.17,-337.65 1501.17,-337.65 1497.33,-337.65 1493.5,-333.82 1493.5,-329.98 1493.5,-329.98 1493.5,-322.32 1493.5,-322.32 1493.5,-318.48 1497.33,-314.65 1501.17,-314.65 1501.17,-314.65 1637.83,-314.65 1637.83,-314.65 1641.67,-314.65 1645.5,-318.48 1645.5,-322.32 1645.5,-322.32 1645.5,-329.98 1645.5,-329.98 1645.5,-333.82 1641.67,-337.65 1637.83,-337.65"/>
<text text-anchor="middle" x="1569.5" y="-322.45" font-family="Arial" font-size="14.00" fill="#cfffac">assets/pawnWhite.svg</text>
</g>
<!-- assets/icons.ts&#45;&gt;assets/pawnWhite.svg -->
<g id="edge12" class="edge">
<title>assets/icons.ts&#45;&gt;assets/pawnWhite.svg</title>
<path fill="none" stroke="#757575" d="M1364.2,-375.6C1405.85,-365.52 1466.42,-350.86 1510.8,-340.12"/>
<polygon fill="#757575" stroke="#757575" points="1511.68,-343.5 1520.57,-337.75 1510.03,-336.7 1511.68,-343.5"/>
</g>
<!-- assets/queenBlack.svg -->
<g id="node16" class="node">
<title>assets/queenBlack.svg</title>
<path fill="none" stroke="#cfffac" d="M1639.33,-296.65C1639.33,-296.65 1499.67,-296.65 1499.67,-296.65 1495.83,-296.65 1492,-292.82 1492,-288.98 1492,-288.98 1492,-281.32 1492,-281.32 1492,-277.48 1495.83,-273.65 1499.67,-273.65 1499.67,-273.65 1639.33,-273.65 1639.33,-273.65 1643.17,-273.65 1647,-277.48 1647,-281.32 1647,-281.32 1647,-288.98 1647,-288.98 1647,-292.82 1643.17,-296.65 1639.33,-296.65"/>
<text text-anchor="middle" x="1569.5" y="-281.45" font-family="Arial" font-size="14.00" fill="#cfffac">assets/queenBlack.svg</text>
</g>
<!-- assets/icons.ts&#45;&gt;assets/queenBlack.svg -->
<g id="edge13" class="edge">
<title>assets/icons.ts&#45;&gt;assets/queenBlack.svg</title>
<path fill="none" stroke="#757575" d="M1337.57,-375.56C1369.67,-358.29 1433.1,-325.63 1490,-305.15 1495.59,-303.13 1501.48,-301.24 1507.42,-299.48"/>
<polygon fill="#757575" stroke="#757575" points="1508.73,-302.75 1517.4,-296.65 1506.82,-296.01 1508.73,-302.75"/>
</g>
<!-- assets/queenWhite.svg -->
<g id="node17" class="node">
<title>assets/queenWhite.svg</title>
<path fill="none" stroke="#cfffac" d="M1640.33,-255.65C1640.33,-255.65 1498.67,-255.65 1498.67,-255.65 1494.83,-255.65 1491,-251.82 1491,-247.98 1491,-247.98 1491,-240.32 1491,-240.32 1491,-236.48 1494.83,-232.65 1498.67,-232.65 1498.67,-232.65 1640.33,-232.65 1640.33,-232.65 1644.17,-232.65 1648,-236.48 1648,-240.32 1648,-240.32 1648,-247.98 1648,-247.98 1648,-251.82 1644.17,-255.65 1640.33,-255.65"/>
<text text-anchor="middle" x="1569.5" y="-240.45" font-family="Arial" font-size="14.00" fill="#cfffac">assets/queenWhite.svg</text>
</g>
<!-- assets/icons.ts&#45;&gt;assets/queenWhite.svg -->
<g id="edge14" class="edge">
<title>assets/icons.ts&#45;&gt;assets/queenWhite.svg</title>
<path fill="none" stroke="#757575" d="M1329.38,-375.42C1356.82,-351.06 1423.98,-294.67 1490,-264.15 1494.06,-262.27 1498.32,-260.55 1502.67,-258.98"/>
<polygon fill="#757575" stroke="#757575" points="1503.92,-262.26 1512.3,-255.77 1501.7,-255.61 1503.92,-262.26"/>
</g>
<!-- assets/rookBlack.svg -->
<g id="node18" class="node">
<title>assets/rookBlack.svg</title>
<path fill="none" stroke="#cfffac" d="M1633.33,-214.65C1633.33,-214.65 1505.67,-214.65 1505.67,-214.65 1501.83,-214.65 1498,-210.82 1498,-206.98 1498,-206.98 1498,-199.32 1498,-199.32 1498,-195.48 1501.83,-191.65 1505.67,-191.65 1505.67,-191.65 1633.33,-191.65 1633.33,-191.65 1637.17,-191.65 1641,-195.48 1641,-199.32 1641,-199.32 1641,-206.98 1641,-206.98 1641,-210.82 1637.17,-214.65 1633.33,-214.65"/>
<text text-anchor="middle" x="1569.5" y="-199.45" font-family="Arial" font-size="14.00" fill="#cfffac">assets/rookBlack.svg</text>
</g>
<!-- assets/icons.ts&#45;&gt;assets/rookBlack.svg -->
<g id="edge15" class="edge">
<title>assets/icons.ts&#45;&gt;assets/rookBlack.svg</title>
<path fill="none" stroke="#757575" d="M1325.21,-375.54C1348.44,-345.43 1415.21,-264.34 1490,-223.15 1493.11,-221.43 1496.38,-219.86 1499.73,-218.43"/>
<polygon fill="#757575" stroke="#757575" points="1501.3,-221.57 1509.37,-214.71 1498.78,-215.04 1501.3,-221.57"/>
</g>
<!-- assets/rookWhite.svg -->
<g id="node19" class="node">
<title>assets/rookWhite.svg</title>
<path fill="none" stroke="#cfffac" d="M1634.83,-173.65C1634.83,-173.65 1504.17,-173.65 1504.17,-173.65 1500.33,-173.65 1496.5,-169.82 1496.5,-165.98 1496.5,-165.98 1496.5,-158.32 1496.5,-158.32 1496.5,-154.48 1500.33,-150.65 1504.17,-150.65 1504.17,-150.65 1634.83,-150.65 1634.83,-150.65 1638.67,-150.65 1642.5,-154.48 1642.5,-158.32 1642.5,-158.32 1642.5,-165.98 1642.5,-165.98 1642.5,-169.82 1638.67,-173.65 1634.83,-173.65"/>
<text text-anchor="middle" x="1569.5" y="-158.45" font-family="Arial" font-size="14.00" fill="#cfffac">assets/rookWhite.svg</text>
</g>
<!-- assets/icons.ts&#45;&gt;assets/rookWhite.svg -->
<g id="edge16" class="edge">
<title>assets/icons.ts&#45;&gt;assets/rookWhite.svg</title>
<path fill="none" stroke="#757575" d="M1322.83,-375.46C1342.51,-340.25 1406.39,-234.44 1490,-182.15 1492.6,-180.52 1495.32,-179.03 1498.14,-177.66"/>
<polygon fill="#757575" stroke="#757575" points="1499.57,-180.85 1507.36,-173.67 1496.79,-174.42 1499.57,-180.85"/>
</g>
<!-- components/Piece.tsx -->
<g id="node21" class="node">
<title>components/Piece.tsx</title>
<path fill="none" stroke="#c6c5fe" d="M1077.83,-398.65C1077.83,-398.65 944.17,-398.65 944.17,-398.65 940.33,-398.65 936.5,-394.82 936.5,-390.98 936.5,-390.98 936.5,-383.32 936.5,-383.32 936.5,-379.48 940.33,-375.65 944.17,-375.65 944.17,-375.65 1077.83,-375.65 1077.83,-375.65 1081.67,-375.65 1085.5,-379.48 1085.5,-383.32 1085.5,-383.32 1085.5,-390.98 1085.5,-390.98 1085.5,-394.82 1081.67,-398.65 1077.83,-398.65"/>
<text text-anchor="middle" x="1011" y="-383.45" font-family="Arial" font-size="14.00" fill="#c6c5fe">components/Piece.tsx</text>
</g>
<!-- components/Board.tsx&#45;&gt;components/Piece.tsx -->
<g id="edge17" class="edge">
<title>components/Board.tsx&#45;&gt;components/Piece.tsx</title>
<path fill="none" stroke="#757575" d="M784.18,-402.15C827.31,-399.29 881.56,-395.68 926.08,-392.72"/>
<polygon fill="#757575" stroke="#757575" points="926.55,-396.2 936.3,-392.05 926.09,-389.22 926.55,-396.2"/>
</g>
<!-- components/Square.tsx -->
<g id="node22" class="node">
<title>components/Square.tsx</title>
<path fill="none" stroke="#cfffac" d="M1082.83,-439.65C1082.83,-439.65 939.17,-439.65 939.17,-439.65 935.33,-439.65 931.5,-435.82 931.5,-431.98 931.5,-431.98 931.5,-424.32 931.5,-424.32 931.5,-420.48 935.33,-416.65 939.17,-416.65 939.17,-416.65 1082.83,-416.65 1082.83,-416.65 1086.67,-416.65 1090.5,-420.48 1090.5,-424.32 1090.5,-424.32 1090.5,-431.98 1090.5,-431.98 1090.5,-435.82 1086.67,-439.65 1082.83,-439.65"/>
<text text-anchor="middle" x="1011" y="-424.45" font-family="Arial" font-size="14.00" fill="#cfffac">components/Square.tsx</text>
</g>
<!-- components/Board.tsx&#45;&gt;components/Square.tsx -->
<g id="edge18" class="edge">
<title>components/Board.tsx&#45;&gt;components/Square.tsx</title>
<path fill="none" stroke="#757575" d="M784.18,-412.39C825.78,-415.3 877.72,-418.92 921.3,-421.96"/>
<polygon fill="#757575" stroke="#757575" points="921.1,-425.45 931.32,-422.66 921.59,-418.47 921.1,-425.45"/>
</g>
<!-- components/Piece.tsx&#45;&gt;assets/icons.ts -->
<g id="edge42" class="edge">
<title>components/Piece.tsx&#45;&gt;assets/icons.ts</title>
<path fill="none" stroke="#757575" d="M1085.61,-387.15C1136.88,-387.15 1204.47,-387.15 1252.89,-387.15"/>
<polygon fill="#757575" stroke="#757575" points="1252.92,-390.65 1262.92,-387.15 1252.92,-383.65 1252.92,-390.65"/>
</g>
<!-- components/BoardButtons.tsx&#45;&gt;context/SocketContext.tsx -->
<g id="edge20" class="edge">
<title>components/BoardButtons.tsx&#45;&gt;context/SocketContext.tsx</title>
<path fill="none" stroke="#757575" d="M806.62,-189.76C920.1,-185.83 1106.19,-179.37 1218.83,-175.47"/>
<polygon fill="#757575" stroke="#757575" points="1218.95,-178.96 1228.82,-175.12 1218.71,-171.97 1218.95,-178.96"/>
</g>
<!-- components/BoardButtons.tsx&#45;&gt;gameLogic/resetGameState.ts -->
<g id="edge21" class="edge">
<title>components/BoardButtons.tsx&#45;&gt;gameLogic/resetGameState.ts</title>
<path fill="none" stroke="#757575" d="M800.13,-204.65C834.3,-208.97 873.34,-213.9 908.4,-218.32"/>
<polygon fill="#757575" stroke="#757575" points="908.3,-221.84 918.66,-219.62 909.18,-214.89 908.3,-221.84"/>
</g>
<!-- components/BoardSaveGameButton.tsx -->
<g id="node24" class="node">
<title>components/BoardSaveGameButton.tsx</title>
<path fill="none" stroke="#c6c5fe" d="M1133.33,-42.65C1133.33,-42.65 888.67,-42.65 888.67,-42.65 884.83,-42.65 881,-38.82 881,-34.98 881,-34.98 881,-27.32 881,-27.32 881,-23.48 884.83,-19.65 888.67,-19.65 888.67,-19.65 1133.33,-19.65 1133.33,-19.65 1137.17,-19.65 1141,-23.48 1141,-27.32 1141,-27.32 1141,-34.98 1141,-34.98 1141,-38.82 1137.17,-42.65 1133.33,-42.65"/>
<text text-anchor="middle" x="1011" y="-27.45" font-family="Arial" font-size="14.00" fill="#c6c5fe">components/BoardSaveGameButton.tsx</text>
</g>
<!-- components/BoardButtons.tsx&#45;&gt;components/BoardSaveGameButton.tsx -->
<g id="edge19" class="edge">
<title>components/BoardButtons.tsx&#45;&gt;components/BoardSaveGameButton.tsx</title>
<path fill="none" stroke="#757575" d="M737.61,-181.56C767.27,-168.44 813.61,-144.71 845,-113.15 867.47,-90.55 854.69,-69.12 881,-51.15 882.94,-49.82 884.93,-48.57 886.97,-47.4"/>
<polygon fill="#757575" stroke="#757575" points="888.89,-50.34 896.19,-42.66 885.7,-44.12 888.89,-50.34"/>
</g>
<!-- components/BoardSaveGameButton.tsx&#45;&gt;apis/ChessGame.ts -->
<g id="edge22" class="edge">
<title>components/BoardSaveGameButton.tsx&#45;&gt;apis/ChessGame.ts</title>
<path fill="none" stroke="#757575" d="M1141.16,-40.12C1173.92,-42.39 1208.08,-44.76 1237.33,-46.79"/>
<polygon fill="#757575" stroke="#757575" points="1237.25,-50.29 1247.47,-47.49 1237.73,-43.31 1237.25,-50.29"/>
</g>
<!-- components/BoardTimer.tsx -->
<g id="node25" class="node">
<title>components/BoardTimer.tsx</title>
<path fill="none" stroke="#cfffac" d="M203.33,-224.65C203.33,-224.65 32.67,-224.65 32.67,-224.65 28.83,-224.65 25,-220.82 25,-216.98 25,-216.98 25,-209.32 25,-209.32 25,-205.48 28.83,-201.65 32.67,-201.65 32.67,-201.65 203.33,-201.65 203.33,-201.65 207.17,-201.65 211,-205.48 211,-209.32 211,-209.32 211,-216.98 211,-216.98 211,-220.82 207.17,-224.65 203.33,-224.65"/>
<text text-anchor="middle" x="118" y="-209.45" font-family="Arial" font-size="14.00" fill="#cfffac">components/BoardTimer.tsx</text>
</g>
<!-- components/GameOver.tsx&#45;&gt;context/SocketContext.tsx -->
<g id="edge33" class="edge">
<title>components/GameOver.tsx&#45;&gt;context/SocketContext.tsx</title>
<path fill="none" stroke="#757575" d="M783.52,-301.65C871.17,-312.39 1020.06,-321.82 1141,-285.15 1203.26,-266.27 1264.2,-217.61 1294.58,-190.71"/>
<polygon fill="#757575" stroke="#757575" points="1297.22,-193.04 1302.31,-183.74 1292.53,-187.83 1297.22,-193.04"/>
</g>
<!-- components/GameOver.tsx&#45;&gt;gameLogic/resetGameState.ts -->
<g id="edge34" class="edge">
<title>components/GameOver.tsx&#45;&gt;gameLogic/resetGameState.ts</title>
<path fill="none" stroke="#757575" d="M767.75,-278.63C817.5,-268.88 888.87,-254.89 941.26,-244.62"/>
<polygon fill="#757575" stroke="#757575" points="942,-248.04 951.14,-242.69 940.65,-241.17 942,-248.04"/>
</g>
<!-- components/GameOver.tsx&#45;&gt;apis/ChessGame.ts -->
<g id="edge32" class="edge">
<title>components/GameOver.tsx&#45;&gt;apis/ChessGame.ts</title>
<path fill="none" stroke="#757575" d="M799.74,-287.11C918.49,-282.35 1114.65,-271.5 1141,-251.15 1178.38,-222.28 1148.56,-188.86 1177,-151.15 1204.85,-114.22 1250.36,-85.31 1281.33,-68.5"/>
<polygon fill="#757575" stroke="#757575" points="1283.24,-71.45 1290.44,-63.67 1279.96,-65.26 1283.24,-71.45"/>
</g>
<!-- gameLogic/isCheck.ts&#45;&gt;gameLogic/calculateThreateningSquares.ts -->
<g id="edge43" class="edge">
<title>gameLogic/isCheck.ts&#45;&gt;gameLogic/calculateThreateningSquares.ts</title>
<path fill="none" stroke="#757575" d="M782.6,-666.86C869.07,-666.52 1016.53,-662.24 1141,-640.15 1187.5,-631.9 1239.15,-615.43 1273.9,-603.23"/>
<polygon fill="#757575" stroke="#757575" points="1275.43,-606.4 1283.68,-599.75 1273.09,-599.8 1275.43,-606.4"/>
</g>
<!-- gameLogic/isFivefoldRepetition.ts -->
<g id="node41" class="node">
<title>gameLogic/isFivefoldRepetition.ts</title>
<path fill="none" stroke="#cfffac" d="M1112.83,-715.65C1112.83,-715.65 909.17,-715.65 909.17,-715.65 905.33,-715.65 901.5,-711.82 901.5,-707.98 901.5,-707.98 901.5,-700.32 901.5,-700.32 901.5,-696.48 905.33,-692.65 909.17,-692.65 909.17,-692.65 1112.83,-692.65 1112.83,-692.65 1116.67,-692.65 1120.5,-696.48 1120.5,-700.32 1120.5,-700.32 1120.5,-707.98 1120.5,-707.98 1120.5,-711.82 1116.67,-715.65 1112.83,-715.65"/>
<text text-anchor="middle" x="1011" y="-700.45" font-family="Arial" font-size="14.00" fill="#cfffac">gameLogic/isFivefoldRepetition.ts</text>
</g>
<!-- gameLogic/isDraw.ts&#45;&gt;gameLogic/isFivefoldRepetition.ts -->
<g id="edge45" class="edge">
<title>gameLogic/isDraw.ts&#45;&gt;gameLogic/isFivefoldRepetition.ts</title>
<path fill="none" stroke="#757575" d="M779.19,-735.59C819.72,-730.07 871.25,-723.05 915.33,-717.04"/>
<polygon fill="#757575" stroke="#757575" points="916.05,-720.48 925.48,-715.66 915.1,-713.54 916.05,-720.48"/>
</g>
<!-- gameLogic/isInsufficientMaterial.ts -->
<g id="node42" class="node">
<title>gameLogic/isInsufficientMaterial.ts</title>
<path fill="none" stroke="#cfffac" d="M1115.33,-797.65C1115.33,-797.65 906.67,-797.65 906.67,-797.65 902.83,-797.65 899,-793.82 899,-789.98 899,-789.98 899,-782.32 899,-782.32 899,-778.48 902.83,-774.65 906.67,-774.65 906.67,-774.65 1115.33,-774.65 1115.33,-774.65 1119.17,-774.65 1123,-778.48 1123,-782.32 1123,-782.32 1123,-789.98 1123,-789.98 1123,-793.82 1119.17,-797.65 1115.33,-797.65"/>
<text text-anchor="middle" x="1011" y="-782.45" font-family="Arial" font-size="14.00" fill="#cfffac">gameLogic/isInsufficientMaterial.ts</text>
</g>
<!-- gameLogic/isDraw.ts&#45;&gt;gameLogic/isInsufficientMaterial.ts -->
<g id="edge46" class="edge">
<title>gameLogic/isDraw.ts&#45;&gt;gameLogic/isInsufficientMaterial.ts</title>
<path fill="none" stroke="#757575" d="M779.19,-754.71C819.72,-760.23 871.25,-767.25 915.33,-773.25"/>
<polygon fill="#757575" stroke="#757575" points="915.1,-776.75 925.48,-774.64 916.05,-769.82 915.1,-776.75"/>
</g>
<!-- gameLogic/isStalemate.ts -->
<g id="node43" class="node">
<title>gameLogic/isStalemate.ts</title>
<path fill="none" stroke="#c6c5fe" d="M1089.83,-838.65C1089.83,-838.65 932.17,-838.65 932.17,-838.65 928.33,-838.65 924.5,-834.82 924.5,-830.98 924.5,-830.98 924.5,-823.32 924.5,-823.32 924.5,-819.48 928.33,-815.65 932.17,-815.65 932.17,-815.65 1089.83,-815.65 1089.83,-815.65 1093.67,-815.65 1097.5,-819.48 1097.5,-823.32 1097.5,-823.32 1097.5,-830.98 1097.5,-830.98 1097.5,-834.82 1093.67,-838.65 1089.83,-838.65"/>
<text text-anchor="middle" x="1011" y="-823.45" font-family="Arial" font-size="14.00" fill="#c6c5fe">gameLogic/isStalemate.ts</text>
</g>
<!-- gameLogic/isDraw.ts&#45;&gt;gameLogic/isStalemate.ts -->
<g id="edge47" class="edge">
<title>gameLogic/isDraw.ts&#45;&gt;gameLogic/isStalemate.ts</title>
<path fill="none" stroke="#757575" d="M735.9,-756.68C769.33,-770.57 828.41,-793.73 881,-807.15 891.7,-809.88 903,-812.3 914.28,-814.42"/>
<polygon fill="#757575" stroke="#757575" points="913.72,-817.87 924.18,-816.21 914.96,-810.98 913.72,-817.87"/>
</g>
<!-- gameLogic/isThreefoldRepetition.ts -->
<g id="node44" class="node">
<title>gameLogic/isThreefoldRepetition.ts</title>
<path fill="none" stroke="#cfffac" d="M1117.83,-756.65C1117.83,-756.65 904.17,-756.65 904.17,-756.65 900.33,-756.65 896.5,-752.82 896.5,-748.98 896.5,-748.98 896.5,-741.32 896.5,-741.32 896.5,-737.48 900.33,-733.65 904.17,-733.65 904.17,-733.65 1117.83,-733.65 1117.83,-733.65 1121.67,-733.65 1125.5,-737.48 1125.5,-741.32 1125.5,-741.32 1125.5,-748.98 1125.5,-748.98 1125.5,-752.82 1121.67,-756.65 1117.83,-756.65"/>
<text text-anchor="middle" x="1011" y="-741.45" font-family="Arial" font-size="14.00" fill="#cfffac">gameLogic/isThreefoldRepetition.ts</text>
</g>
<!-- gameLogic/isDraw.ts&#45;&gt;gameLogic/isThreefoldRepetition.ts -->
<g id="edge48" class="edge">
<title>gameLogic/isDraw.ts&#45;&gt;gameLogic/isThreefoldRepetition.ts</title>
<path fill="none" stroke="#757575" d="M779.19,-745.15C811.03,-745.15 849.65,-745.15 886.11,-745.15"/>
<polygon fill="#757575" stroke="#757575" points="886.33,-748.65 896.33,-745.15 886.33,-741.65 886.33,-748.65"/>
</g>
<!-- gameLogic/validMoves.ts&#45;&gt;gameLogic/calculateThreateningSquares.ts -->
<g id="edge50" class="edge">
<title>gameLogic/validMoves.ts&#45;&gt;gameLogic/calculateThreateningSquares.ts</title>
<path fill="none" stroke="#757575" d="M793.19,-520.99C903.7,-535.23 1097.41,-560.18 1215.03,-575.33"/>
<polygon fill="#757575" stroke="#757575" points="1214.75,-578.83 1225.12,-576.63 1215.64,-571.89 1214.75,-578.83"/>
</g>
<!-- gameLogic/enPassant.ts -->
<g id="node38" class="node">
<title>gameLogic/enPassant.ts</title>
<path fill="none" stroke="#cfffac" d="M1085.83,-521.65C1085.83,-521.65 936.17,-521.65 936.17,-521.65 932.33,-521.65 928.5,-517.82 928.5,-513.98 928.5,-513.98 928.5,-506.32 928.5,-506.32 928.5,-502.48 932.33,-498.65 936.17,-498.65 936.17,-498.65 1085.83,-498.65 1085.83,-498.65 1089.67,-498.65 1093.5,-502.48 1093.5,-506.32 1093.5,-506.32 1093.5,-513.98 1093.5,-513.98 1093.5,-517.82 1089.67,-521.65 1085.83,-521.65"/>
<text text-anchor="middle" x="1011" y="-506.45" font-family="Arial" font-size="14.00" fill="#cfffac">gameLogic/enPassant.ts</text>
</g>
<!-- gameLogic/validMoves.ts&#45;&gt;gameLogic/enPassant.ts -->
<g id="edge51" class="edge">
<title>gameLogic/validMoves.ts&#45;&gt;gameLogic/enPassant.ts</title>
<path fill="none" stroke="#757575" d="M793.25,-510.15C832.12,-510.15 878.37,-510.15 918.14,-510.15"/>
<polygon fill="#757575" stroke="#757575" points="918.37,-513.65 928.37,-510.15 918.37,-506.65 918.37,-513.65"/>
</g>
<!-- gameLogic/isCheckOpponent.ts -->
<g id="node39" class="node">
<title>gameLogic/isCheckOpponent.ts</title>
<path fill="none" stroke="#c6c5fe" d="M1107.83,-480.65C1107.83,-480.65 914.17,-480.65 914.17,-480.65 910.33,-480.65 906.5,-476.82 906.5,-472.98 906.5,-472.98 906.5,-465.32 906.5,-465.32 906.5,-461.48 910.33,-457.65 914.17,-457.65 914.17,-457.65 1107.83,-457.65 1107.83,-457.65 1111.67,-457.65 1115.5,-461.48 1115.5,-465.32 1115.5,-465.32 1115.5,-472.98 1115.5,-472.98 1115.5,-476.82 1111.67,-480.65 1107.83,-480.65"/>
<text text-anchor="middle" x="1011" y="-465.45" font-family="Arial" font-size="14.00" fill="#c6c5fe">gameLogic/isCheckOpponent.ts</text>
</g>
<!-- gameLogic/validMoves.ts&#45;&gt;gameLogic/isCheckOpponent.ts -->
<g id="edge52" class="edge">
<title>gameLogic/validMoves.ts&#45;&gt;gameLogic/isCheckOpponent.ts</title>
<path fill="none" stroke="#757575" d="M793.25,-498.67C831.16,-493.51 876.09,-487.39 915.18,-482.06"/>
<polygon fill="#757575" stroke="#757575" points="916.08,-485.47 925.51,-480.66 915.13,-478.54 916.08,-485.47"/>
</g>
<!-- gameLogic/pieceMoves.ts -->
<g id="node45" class="node">
<title>gameLogic/pieceMoves.ts</title>
<path fill="none" stroke="#cfffac" d="M1394.83,-758.65C1394.83,-758.65 1236.17,-758.65 1236.17,-758.65 1232.33,-758.65 1228.5,-754.82 1228.5,-750.98 1228.5,-750.98 1228.5,-743.32 1228.5,-743.32 1228.5,-739.48 1232.33,-735.65 1236.17,-735.65 1236.17,-735.65 1394.83,-735.65 1394.83,-735.65 1398.67,-735.65 1402.5,-739.48 1402.5,-743.32 1402.5,-743.32 1402.5,-750.98 1402.5,-750.98 1402.5,-754.82 1398.67,-758.65 1394.83,-758.65"/>
<text text-anchor="middle" x="1315.5" y="-743.45" font-family="Arial" font-size="14.00" fill="#cfffac">gameLogic/pieceMoves.ts</text>
</g>
<!-- gameLogic/validMoves.ts&#45;&gt;gameLogic/pieceMoves.ts -->
<g id="edge53" class="edge">
<title>gameLogic/validMoves.ts&#45;&gt;gameLogic/pieceMoves.ts</title>
<path fill="none" stroke="#757575" d="M738.61,-521.74C838.41,-560.8 1162.46,-687.64 1275.31,-731.81"/>
<polygon fill="#757575" stroke="#757575" points="1274.35,-735.19 1284.94,-735.58 1276.91,-728.68 1274.35,-735.19"/>
</g>
<!-- components/ConnectionManager.tsx -->
<g id="node31" class="node">
<title>components/ConnectionManager.tsx</title>
<path fill="none" stroke="#c6c5fe" d="M1121.83,-124.65C1121.83,-124.65 900.17,-124.65 900.17,-124.65 896.33,-124.65 892.5,-120.82 892.5,-116.98 892.5,-116.98 892.5,-109.32 892.5,-109.32 892.5,-105.48 896.33,-101.65 900.17,-101.65 900.17,-101.65 1121.83,-101.65 1121.83,-101.65 1125.67,-101.65 1129.5,-105.48 1129.5,-109.32 1129.5,-109.32 1129.5,-116.98 1129.5,-116.98 1129.5,-120.82 1125.67,-124.65 1121.83,-124.65"/>
<text text-anchor="middle" x="1011" y="-109.45" font-family="Arial" font-size="14.00" fill="#c6c5fe">components/ConnectionManager.tsx</text>
</g>
<!-- components/ConnectionManager.tsx&#45;&gt;context/SocketContext.tsx -->
<g id="edge31" class="edge">
<title>components/ConnectionManager.tsx&#45;&gt;context/SocketContext.tsx</title>
<path fill="none" stroke="#757575" d="M1071.04,-124.66C1121.04,-134.42 1192.76,-148.4 1245.42,-158.67"/>
<polygon fill="#757575" stroke="#757575" points="1244.86,-162.13 1255.35,-160.61 1246.2,-155.26 1244.86,-162.13"/>
</g>
<!-- components/LobbyGameButtons.tsx&#45;&gt;components/ConnectionManager.tsx -->
<g id="edge37" class="edge">
<title>components/LobbyGameButtons.tsx&#45;&gt;components/ConnectionManager.tsx</title>
<path fill="none" stroke="#757575" d="M826.24,-100.94C844.48,-102.15 863.41,-103.41 881.89,-104.64"/>
<polygon fill="#757575" stroke="#757575" points="881.88,-108.14 892.09,-105.31 882.35,-101.16 881.88,-108.14"/>
</g>
<!-- components/LobbySavedGames.tsx -->
<g id="node34" class="node">
<title>components/LobbySavedGames.tsx</title>
<path fill="none" stroke="#c6c5fe" d="M1121.33,-83.65C1121.33,-83.65 900.67,-83.65 900.67,-83.65 896.83,-83.65 893,-79.82 893,-75.98 893,-75.98 893,-68.32 893,-68.32 893,-64.48 896.83,-60.65 900.67,-60.65 900.67,-60.65 1121.33,-60.65 1121.33,-60.65 1125.17,-60.65 1129,-64.48 1129,-68.32 1129,-68.32 1129,-75.98 1129,-75.98 1129,-79.82 1125.17,-83.65 1121.33,-83.65"/>
<text text-anchor="middle" x="1011" y="-68.45" font-family="Arial" font-size="14.00" fill="#c6c5fe">components/LobbySavedGames.tsx</text>
</g>
<!-- components/LobbyGameButtons.tsx&#45;&gt;components/LobbySavedGames.tsx -->
<g id="edge38" class="edge">
<title>components/LobbyGameButtons.tsx&#45;&gt;components/LobbySavedGames.tsx</title>
<path fill="none" stroke="#757575" d="M826.24,-84.97C844.71,-83.68 863.88,-82.34 882.57,-81.04"/>
<polygon fill="#757575" stroke="#757575" points="882.86,-84.53 892.59,-80.34 882.37,-77.54 882.86,-84.53"/>
</g>
<!-- components/LobbySignInSignUpButton.tsx&#45;&gt;apis/ChessGame.ts -->
<g id="edge41" class="edge">
<title>components/LobbySignInSignUpButton.tsx&#45;&gt;apis/ChessGame.ts</title>
<path fill="none" stroke="#757575" d="M845.2,-2.96C930.49,0.68 1042.51,1.6 1141,-10.15 1184.69,-15.36 1233.29,-27.71 1267.91,-37.68"/>
<polygon fill="#757575" stroke="#757575" points="1267.16,-41.1 1277.74,-40.55 1269.12,-34.39 1267.16,-41.1"/>
</g>
<!-- components/LobbySavedGames.tsx&#45;&gt;context/SocketContext.tsx -->
<g id="edge40" class="edge">
<title>components/LobbySavedGames.tsx&#45;&gt;context/SocketContext.tsx</title>
<path fill="none" stroke="#757575" d="M1106.39,-83.66C1118.16,-86.01 1129.93,-88.81 1141,-92.15 1194.12,-108.17 1251.9,-137.41 1285.57,-155.75"/>
<polygon fill="#757575" stroke="#757575" points="1283.95,-158.86 1294.4,-160.62 1287.33,-152.73 1283.95,-158.86"/>
</g>
<!-- components/LobbySavedGames.tsx&#45;&gt;apis/ChessGame.ts -->
<g id="edge39" class="edge">
<title>components/LobbySavedGames.tsx&#45;&gt;apis/ChessGame.ts</title>
<path fill="none" stroke="#757575" d="M1129.39,-64.39C1165.5,-62 1204.33,-59.43 1237.06,-57.27"/>
<polygon fill="#757575" stroke="#757575" points="1237.71,-60.73 1247.46,-56.58 1237.25,-53.75 1237.71,-60.73"/>
</g>
<!-- components/LobbySignUpButton.tsx -->
<g id="node35" class="node">
<title>components/LobbySignUpButton.tsx</title>
<path fill="none" stroke="#cfffac" d="M228.33,-265.65C228.33,-265.65 7.67,-265.65 7.67,-265.65 3.83,-265.65 0,-261.82 0,-257.98 0,-257.98 0,-250.32 0,-250.32 0,-246.48 3.83,-242.65 7.67,-242.65 7.67,-242.65 228.33,-242.65 228.33,-242.65 232.17,-242.65 236,-246.48 236,-250.32 236,-250.32 236,-257.98 236,-257.98 236,-261.82 232.17,-265.65 228.33,-265.65"/>
<text text-anchor="middle" x="118" y="-250.45" font-family="Arial" font-size="14.00" fill="#cfffac">components/LobbySignUpButton.tsx</text>
</g>
<!-- gameLogic/canBlock.ts -->
<g id="node36" class="node">
<title>gameLogic/canBlock.ts</title>
<path fill="none" stroke="#cfffac" d="M188.33,-306.65C188.33,-306.65 47.67,-306.65 47.67,-306.65 43.83,-306.65 40,-302.82 40,-298.98 40,-298.98 40,-291.32 40,-291.32 40,-287.48 43.83,-283.65 47.67,-283.65 47.67,-283.65 188.33,-283.65 188.33,-283.65 192.17,-283.65 196,-287.48 196,-291.32 196,-291.32 196,-298.98 196,-298.98 196,-302.82 192.17,-306.65 188.33,-306.65"/>
<text text-anchor="middle" x="118" y="-291.45" font-family="Arial" font-size="14.00" fill="#cfffac">gameLogic/canBlock.ts</text>
</g>
<!-- gameLogic/castling.ts -->
<g id="node37" class="node">
<title>gameLogic/castling.ts</title>
<path fill="none" stroke="#cfffac" d="M183.83,-347.65C183.83,-347.65 52.17,-347.65 52.17,-347.65 48.33,-347.65 44.5,-343.82 44.5,-339.98 44.5,-339.98 44.5,-332.32 44.5,-332.32 44.5,-328.48 48.33,-324.65 52.17,-324.65 52.17,-324.65 183.83,-324.65 183.83,-324.65 187.67,-324.65 191.5,-328.48 191.5,-332.32 191.5,-332.32 191.5,-339.98 191.5,-339.98 191.5,-343.82 187.67,-347.65 183.83,-347.65"/>
<text text-anchor="middle" x="118" y="-332.45" font-family="Arial" font-size="14.00" fill="#cfffac">gameLogic/castling.ts</text>
</g>
<!-- gameLogic/isCheckOpponent.ts&#45;&gt;gameLogic/calculateThreateningSquares.ts -->
<g id="edge44" class="edge">
<title>gameLogic/isCheckOpponent.ts&#45;&gt;gameLogic/calculateThreateningSquares.ts</title>
<path fill="none" stroke="#757575" d="M1110.82,-480.66C1121.14,-482.98 1131.37,-485.78 1141,-489.15 1198.16,-509.12 1258.05,-547.9 1290.36,-570.54"/>
<polygon fill="#757575" stroke="#757575" points="1288.54,-573.54 1298.72,-576.47 1292.59,-567.83 1288.54,-573.54"/>
</g>
<!-- gameLogic/isCheckmate.ts -->
<g id="node40" class="node">
<title>gameLogic/isCheckmate.ts</title>
<path fill="none" stroke="#cfffac" d="M200.33,-388.65C200.33,-388.65 35.67,-388.65 35.67,-388.65 31.83,-388.65 28,-384.82 28,-380.98 28,-380.98 28,-373.32 28,-373.32 28,-369.48 31.83,-365.65 35.67,-365.65 35.67,-365.65 200.33,-365.65 200.33,-365.65 204.17,-365.65 208,-369.48 208,-373.32 208,-373.32 208,-380.98 208,-380.98 208,-384.82 204.17,-388.65 200.33,-388.65"/>
<text text-anchor="middle" x="118" y="-373.45" font-family="Arial" font-size="14.00" fill="#cfffac">gameLogic/isCheckmate.ts</text>
</g>
<!-- gameLogic/isStalemate.ts&#45;&gt;gameLogic/pieceMoves.ts -->
<g id="edge49" class="edge">
<title>gameLogic/isStalemate.ts&#45;&gt;gameLogic/pieceMoves.ts</title>
<path fill="none" stroke="#757575" d="M1097.78,-816.05C1112.29,-813.55 1127.14,-810.59 1141,-807.15 1188.58,-795.33 1241.62,-776.06 1276.38,-762.55"/>
<polygon fill="#757575" stroke="#757575" points="1278.09,-765.64 1286.12,-758.73 1275.53,-759.12 1278.09,-765.64"/>
</g>
<!-- index.css -->
<g id="node46" class="node">
<title>index.css</title>
<path fill="none" stroke="#cfffac" d="M337.33,-163.65C337.33,-163.65 279.67,-163.65 279.67,-163.65 275.83,-163.65 272,-159.82 272,-155.98 272,-155.98 272,-148.32 272,-148.32 272,-144.48 275.83,-140.65 279.67,-140.65 279.67,-140.65 337.33,-140.65 337.33,-140.65 341.17,-140.65 345,-144.48 345,-148.32 345,-148.32 345,-155.98 345,-155.98 345,-159.82 341.17,-163.65 337.33,-163.65"/>
<text text-anchor="middle" x="308.5" y="-148.45" font-family="Arial" font-size="14.00" fill="#cfffac">index.css</text>
</g>
<!-- main.tsx -->
<g id="node47" class="node">
<title>main.tsx</title>
<path fill="none" stroke="#c6c5fe" d="M144.33,-183.65C144.33,-183.65 91.67,-183.65 91.67,-183.65 87.83,-183.65 84,-179.82 84,-175.98 84,-175.98 84,-168.32 84,-168.32 84,-164.48 87.83,-160.65 91.67,-160.65 91.67,-160.65 144.33,-160.65 144.33,-160.65 148.17,-160.65 152,-164.48 152,-168.32 152,-168.32 152,-175.98 152,-175.98 152,-179.82 148.17,-183.65 144.33,-183.65"/>
<text text-anchor="middle" x="118" y="-168.45" font-family="Arial" font-size="14.00" fill="#c6c5fe">main.tsx</text>
</g>
<!-- main.tsx&#45;&gt;App.tsx -->
<g id="edge54" class="edge">
<title>main.tsx&#45;&gt;App.tsx</title>
<path fill="none" stroke="#757575" d="M152.27,-175.85C184.35,-179.43 232.97,-184.85 267.23,-188.66"/>
<polygon fill="#757575" stroke="#757575" points="267.04,-192.16 277.37,-189.79 267.81,-185.21 267.04,-192.16"/>
</g>
<!-- main.tsx&#45;&gt;index.css -->
<g id="edge55" class="edge">
<title>main.tsx&#45;&gt;index.css</title>
<path fill="none" stroke="#757575" d="M152.27,-168.62C182.63,-165.4 227.79,-160.61 261.59,-157.02"/>
<polygon fill="#757575" stroke="#757575" points="262.11,-160.48 271.68,-155.95 261.37,-153.52 262.11,-160.48"/>
</g>
<!-- types/clientTypes.js -->
<g id="node48" class="node">
<title>types/clientTypes.js</title>
<path fill="none" stroke="#cfffac" d="M177.33,-429.65C177.33,-429.65 58.67,-429.65 58.67,-429.65 54.83,-429.65 51,-425.82 51,-421.98 51,-421.98 51,-414.32 51,-414.32 51,-410.48 54.83,-406.65 58.67,-406.65 58.67,-406.65 177.33,-406.65 177.33,-406.65 181.17,-406.65 185,-410.48 185,-414.32 185,-414.32 185,-421.98 185,-421.98 185,-425.82 181.17,-429.65 177.33,-429.65"/>
<text text-anchor="middle" x="118" y="-414.45" font-family="Arial" font-size="14.00" fill="#cfffac">types/clientTypes.js</text>
</g>
<!-- vite&#45;env.d.ts -->
<g id="node49" class="node">
<title>vite&#45;env.d.ts</title>
<path fill="none" stroke="#cfffac" d="M154.83,-470.65C154.83,-470.65 81.17,-470.65 81.17,-470.65 77.33,-470.65 73.5,-466.82 73.5,-462.98 73.5,-462.98 73.5,-455.32 73.5,-455.32 73.5,-451.48 77.33,-447.65 81.17,-447.65 81.17,-447.65 154.83,-447.65 154.83,-447.65 158.67,-447.65 162.5,-451.48 162.5,-455.32 162.5,-455.32 162.5,-462.98 162.5,-462.98 162.5,-466.82 158.67,-470.65 154.83,-470.65"/>
<text text-anchor="middle" x="118" y="-455.45" font-family="Arial" font-size="14.00" fill="#cfffac">vite&#45;env.d.ts</text>
</g>
</g>
</svg>
